<svg width="172" height="32" viewBox="0 0 172 32" fill="none" xmlns="http://www.w3.org/2000/svg">
<path fill-rule="evenodd" clip-rule="evenodd" d="M82.0704 2.77976V14.0503L91.04 18.2692V32.0002H82.0704L77.224 29.7029V16.7589L82.0704 19.0563V29.2313H86.1936V22.8498L89.4056 20.751L86.1936 19.3718L77.224 15.0607V0.00732422H86.1936L91.04 2.3366V15.8159L86.1936 13.5185V6.26481L89.4056 4.16598L86.1936 2.77976H82.0704ZM70.4558 7.75408H67.2438L70.4558 10.6187V15.7807L74.579 13.9229V17.2591L70.4558 19.1487V24.2469H74.579V27.0158H65.6094V4.98519H74.579V7.75408H70.4558ZM99.1589 18.6414H103.282L108.129 16.344V7.34246L103.282 4.98128H94.3125V27.0119H99.1589V18.6414ZM103.282 10.6892V15.8725H99.1589V7.75372H103.282L106.501 9.13285L103.282 10.6892ZM115.336 27.0158L110.49 24.7184V4.98519H119.459L124.306 7.34637V27.0193H115.336V27.0158ZM119.459 24.2469V13.0118L122.568 9.13675L119.459 7.75763H115.336V24.2504H119.459V24.2469ZM138.633 17.7005L141.462 19.053V27.0158H136.615V18.6453H132.492V27.0158H127.646V7.357L132.492 4.98519H141.462V16.3479L138.633 17.7005ZM136.615 7.75408V15.8728H132.492V10.718L129.266 9.13321L132.492 7.75408H136.615ZM148.754 7.72217L151.974 10.5832V27.0158H147.127V7.75408H143.068V4.98519H155.973V7.72217H148.754ZM159.217 7.75733L162.422 10.6255V14.0503L171.392 18.2692V27.019H162.422L157.576 24.7217V16.7589L162.422 19.0562V24.2501H166.545V19.3718L157.576 15.0607V4.98844H166.545L171.392 7.31771V15.8158L166.545 13.5185V7.75733H159.217Z" fill="url(#paint0_linear_384_4184)"/>
<path d="M129.111 2.89298C127.955 3.75803 126.881 4.7259 125.906 5.78241C124.928 4.7259 123.857 3.75449 122.701 2.89298C123.857 2.02792 124.931 1.06005 125.906 0C126.885 1.06005 127.959 2.02792 129.111 2.89298Z" fill="#E2D45C"/>
<path fill-rule="evenodd" clip-rule="evenodd" d="M7.47352 16.3684V13.6704L0.0141813 16.4428H0V19.2117H0.0141813L7.47352 21.9842V19.2826L3.65167 17.822L7.47352 16.3684Z" fill="#996DFF"/>
<path fill-rule="evenodd" clip-rule="evenodd" d="M50.6756 21.8464V19.1484L54.4974 17.6948L50.6756 16.2413V13.5433L58.1243 16.3157H58.142V19.0881H58.1243L50.6756 21.8464ZM47.4777 9.72852L43.0957 23.7892H45.6944L50.0764 9.72852H47.4777Z" fill="#996DFF"/>
<path fill-rule="evenodd" clip-rule="evenodd" d="M18.4329 13.1604C19.1738 13.9722 19.5638 15.0465 19.5177 16.1455V22.1336H16.919V16.695C16.9509 16.0888 16.7559 15.4932 16.3766 15.0217C16.015 14.5998 15.4832 14.3693 14.9301 14.3941C13.3028 14.3941 12.4874 15.5251 12.4874 17.7835V22.1371H9.88867V12.3059H12.4874V13.1923C13.3134 12.391 14.4338 11.9621 15.5824 12.0117C16.6567 11.9656 17.6955 12.3875 18.4364 13.1639L18.4329 13.1604Z" fill="white"/>
<path fill-rule="evenodd" clip-rule="evenodd" d="M22.8281 8.21094V22.2717H25.4268V8.21094H22.8281Z" fill="white"/>
<path fill-rule="evenodd" clip-rule="evenodd" d="M40.1253 21.7576H37.9556L35.8284 15.9645L33.6799 21.7576H31.5137L27.8691 11.9087H30.6487L32.6979 17.7975L34.8073 11.9087H36.8352L38.9447 17.8187L40.9939 11.9087H43.7734L40.1253 21.7576Z" fill="white"/>
<defs>
<linearGradient id="paint0_linear_384_4184" x1="66.1199" y1="16.0002" x2="170.215" y2="16.0002" gradientUnits="userSpaceOnUse">
<stop stop-color="#996DFF"/>
<stop offset="0.5" stop-color="#35E8B3"/>
<stop offset="1" stop-color="#E2D45C"/>
</linearGradient>
</defs>
</svg>
